<svg width="128" height="7" viewBox="0 0 128 7" fill="none" xmlns="http://www.w3.org/2000/svg">
<path d="M9.84054 0C10.392 0 10.8837 0.0905814 11.3156 0.271748C11.7475 0.452915 12.113 0.702794 12.412 1.0214C12.711 1.34001 12.9402 1.71487 13.0997 2.14592C13.2592 2.57073 13.3389 3.03302 13.3389 3.5328C13.3389 4.02008 13.2592 4.47613 13.0997 4.90094C12.9402 5.3195 12.711 5.68497 12.412 5.99733C12.113 6.30969 11.7475 6.55645 11.3156 6.73762C10.8837 6.91254 10.392 7 9.84054 7C9.29569 7 8.804 6.91254 8.36546 6.73762C7.93357 6.55645 7.56811 6.30969 7.2691 5.99733C6.9701 5.68497 6.74086 5.3195 6.58139 4.90094C6.42192 4.47613 6.3422 4.02008 6.3422 3.5328C6.3422 3.03302 6.42192 2.57073 6.58139 2.14592C6.74086 1.71487 6.9701 1.34001 7.2691 1.0214C7.5681 0.702793 7.93357 0.452916 8.36546 0.271748C8.804 0.0905809 9.29569 2.63397e-07 9.84054 0ZM42.5345 0C43.086 0 43.5777 0.0905816 44.0096 0.271748C44.4415 0.452916 44.807 0.702794 45.106 1.0214C45.405 1.34001 45.6342 1.71487 45.7937 2.14592C45.9531 2.57073 46.0329 3.03302 46.0329 3.5328C46.0329 4.02008 45.9531 4.47613 45.7937 4.90094C45.6342 5.3195 45.405 5.68497 45.106 5.99733C44.807 6.30969 44.4415 6.55645 44.0096 6.73762C43.5777 6.91254 43.086 7 42.5345 7C41.9897 7 41.498 6.91254 41.0594 6.73762C40.6275 6.55645 40.2621 6.30969 39.9631 5.99733C39.6641 5.68497 39.4348 5.3195 39.2754 4.90094C39.1159 4.47613 39.0362 4.02008 39.0362 3.5328C39.0362 3.03302 39.1159 2.57073 39.2754 2.14592C39.4348 1.71487 39.6641 1.34001 39.9631 1.0214C40.2621 0.702794 40.6275 0.452916 41.0594 0.271748C41.498 0.0905805 41.9897 0 42.5345 0ZM64.2168 0C64.6686 4.81882e-07 65.1038 0.0687143 65.5224 0.206153C65.941 0.343592 66.3098 0.53726 66.6288 0.787147C66.9477 1.03079 67.2035 1.33067 67.3962 1.68675C67.5889 2.0366 67.6852 2.42706 67.6852 2.85811C67.6852 3.33914 67.5922 3.75147 67.4062 4.09506C67.2268 4.43865 67.0075 4.71979 66.7484 4.93844C66.4959 5.15709 66.2367 5.3195 65.9709 5.42571C65.7118 5.52566 65.5025 5.57563 65.343 5.57563C65.1304 5.57563 64.9576 5.52566 64.8248 5.42571C64.6985 5.32575 64.6287 5.19768 64.6155 5.0415H64.5955C64.4759 5.22891 64.3198 5.36638 64.1271 5.45384C63.9344 5.5413 63.7317 5.58503 63.5191 5.58503C63.3065 5.58503 63.1038 5.54442 62.9111 5.4632C62.7251 5.37574 62.559 5.26014 62.4128 5.11646C62.2732 4.96653 62.1603 4.79472 62.0739 4.60106C61.9942 4.4074 61.9543 4.20125 61.9543 3.9826C61.9543 3.68899 62.0041 3.39849 62.1038 3.11113C62.2101 2.82376 62.3563 2.56761 62.5424 2.34271C62.735 2.11781 62.9643 1.93662 63.2301 1.79918C63.5025 1.66175 63.8015 1.59303 64.1271 1.59303C64.3397 1.59303 64.559 1.64303 64.7849 1.74298C65.0108 1.83669 65.1803 2.00534 65.2932 2.24898L65.4527 1.74298H66.27L65.642 4.16066C65.6221 4.22313 65.6022 4.29184 65.5822 4.36681C65.569 4.43553 65.5623 4.50112 65.5623 4.5636C65.5623 4.62606 65.5756 4.67916 65.6022 4.72288C65.6287 4.76037 65.6719 4.77911 65.7317 4.77911C65.8713 4.77911 66.0108 4.7385 66.1503 4.65729C66.2965 4.56983 66.4228 4.45114 66.5291 4.30121C66.642 4.14503 66.7317 3.96072 66.7982 3.74832C66.8713 3.53592 66.9078 3.30478 66.9078 3.0549C66.9078 2.68007 66.8381 2.35208 66.6985 2.07096C66.559 1.78359 66.3663 1.54304 66.1204 1.34938C65.8812 1.14947 65.5955 0.999561 65.2633 0.899607C64.9377 0.799653 64.5855 0.74965 64.2068 0.749649C63.7816 0.749649 63.3928 0.821517 63.0407 0.965203C62.6952 1.10264 62.3995 1.29631 62.1536 1.5462C61.9078 1.78984 61.7184 2.08345 61.5855 2.42704C61.4526 2.76439 61.3862 3.12986 61.3862 3.52343C61.3862 3.93575 61.4593 4.31058 61.6054 4.64792C61.7516 4.97902 61.9543 5.26639 62.2134 5.51003C62.4726 5.74742 62.7815 5.93174 63.1403 6.06293C63.5058 6.19412 63.9012 6.25972 64.3264 6.25972C64.745 6.25971 65.1404 6.19412 65.5125 6.06293C65.8912 5.92549 66.2102 5.73494 66.4693 5.4913H67.3065C66.9676 5.97858 66.5324 6.35341 66.0008 6.61579C65.4693 6.87193 64.8912 7 64.2666 7C63.7351 7 63.2367 6.91254 62.7716 6.73762C62.3065 6.5627 61.8978 6.31906 61.5456 6.0067C61.2001 5.69434 60.9277 5.32575 60.7284 4.90094C60.5291 4.46989 60.4294 4.00447 60.4294 3.5047C60.4294 3.01117 60.5291 2.55197 60.7284 2.12716C60.9277 1.69611 61.2001 1.32439 61.5456 1.01203C61.8912 0.69967 62.2932 0.452918 62.7517 0.271748C63.2101 0.0905805 63.6985 0 64.2168 0ZM108.38 0C108.772 0 109.141 0.0530861 109.486 0.159288C109.838 0.265491 110.151 0.421665 110.423 0.627823C110.702 0.827734 110.931 1.07764 111.111 1.37751C111.29 1.67737 111.403 2.02098 111.45 2.40831H109.935C109.908 2.23963 109.848 2.08657 109.755 1.94914C109.662 1.80545 109.546 1.6805 109.407 1.57429C109.267 1.46809 109.108 1.38687 108.928 1.33064C108.755 1.26817 108.573 1.23695 108.38 1.23695C108.028 1.23695 107.729 1.30255 107.483 1.43374C107.237 1.55868 107.038 1.73049 106.885 1.94914C106.732 2.16154 106.619 2.40518 106.546 2.68005C106.48 2.95493 106.446 3.23918 106.446 3.5328C106.446 3.81392 106.48 4.08881 106.546 4.35744C106.619 4.61982 106.732 4.85723 106.885 5.06963C107.038 5.28203 107.237 5.45384 107.483 5.58503C107.729 5.70997 108.028 5.77241 108.38 5.77241C108.858 5.77241 109.23 5.63499 109.496 5.36011C109.769 5.08523 109.935 4.72288 109.995 4.27308H111.51C111.47 4.69165 111.367 5.06962 111.201 5.40697C111.034 5.74432 110.815 6.03169 110.543 6.26908C110.27 6.50647 109.951 6.68764 109.586 6.81258C109.22 6.93752 108.818 7 108.38 7C107.835 7 107.343 6.91254 106.905 6.73762C106.473 6.55645 106.108 6.30969 105.808 5.99733C105.509 5.68497 105.28 5.3195 105.121 4.90094C104.961 4.47613 104.882 4.02008 104.882 3.5328C104.882 3.03302 104.961 2.57073 105.121 2.14592C105.28 1.71487 105.509 1.34001 105.808 1.0214C106.108 0.702795 106.473 0.452915 106.905 0.271748C107.343 0.0905805 107.835 0 108.38 0ZM115.767 0C116.319 0 116.811 0.0905805 117.243 0.271748C117.674 0.452915 118.04 0.702795 118.339 1.0214C118.638 1.34001 118.867 1.71487 119.027 2.14592C119.186 2.57073 119.266 3.03302 119.266 3.5328C119.266 4.02008 119.186 4.47613 119.027 4.90094C118.867 5.3195 118.638 5.68497 118.339 5.99733C118.04 6.30969 117.674 6.55645 117.243 6.73762C116.811 6.91254 116.319 7 115.767 7C115.223 7 114.731 6.91254 114.292 6.73762C113.86 6.55645 113.495 6.30969 113.196 5.99733C112.897 5.68497 112.668 5.3195 112.508 4.90094C112.349 4.47613 112.269 4.02008 112.269 3.5328C112.269 3.03302 112.349 2.57073 112.508 2.14592C112.668 1.71487 112.897 1.34001 113.196 1.0214C113.495 0.702795 113.861 0.452915 114.292 0.271748C114.731 0.0905805 115.223 0 115.767 0ZM5.8306 1.39624H3.69768V6.85008H2.13291V1.39624H0V0.159288H5.8306V1.39624ZM18.9087 6.85008H13.8084V5.78854H18.9087V6.85008ZM23.3053 0.159288C23.6442 0.159288 23.9532 0.18739 24.2323 0.243615C24.5114 0.29984 24.7506 0.393574 24.9499 0.524765C25.1492 0.649709 25.3021 0.818393 25.4084 1.0308C25.5213 1.2432 25.5778 1.50559 25.5778 1.81795C25.5778 2.15529 25.4948 2.43643 25.3286 2.66132C25.1692 2.88622 24.9299 3.0705 24.611 3.21419C25.0496 3.33288 25.3751 3.54218 25.5878 3.84204C25.807 4.13566 25.9167 4.49174 25.9167 4.91031C25.9167 5.24766 25.8469 5.54129 25.7074 5.79118C25.5678 6.03482 25.3785 6.23473 25.1393 6.39091C24.9067 6.54709 24.6376 6.66265 24.3319 6.73762C24.0329 6.81258 23.724 6.85008 23.405 6.85008H19.9565V0.159288H23.3053ZM32.2965 1.39624H28.539V2.82998H31.9875V3.97324H28.539V5.61313H32.3762V6.85008H26.9742V0.159288H32.2965V1.39624ZM38.4404 1.39624H35.0019V2.94244H37.9819V4.08566H35.0019V6.85008H33.4371V0.159288H38.4404V1.39624ZM50.9397 0.159288C51.2587 0.159288 51.5444 0.209255 51.7969 0.309211C52.0561 0.402917 52.2753 0.534116 52.4547 0.702785C52.6408 0.87146 52.7803 1.06828 52.8733 1.29318C52.973 1.51183 53.0229 1.74923 53.0229 2.00537C53.0229 2.39893 52.9331 2.7394 52.7537 3.02676C52.581 3.31414 52.2952 3.53279 51.8966 3.68272V3.70149C52.0893 3.75146 52.2487 3.82954 52.375 3.93574C52.5012 4.03569 52.6042 4.15753 52.684 4.30121C52.7637 4.43865 52.8202 4.59171 52.8534 4.76038C52.8933 4.92906 52.9198 5.09774 52.9331 5.26642C52.9398 5.37261 52.9464 5.49755 52.9531 5.64122C52.9597 5.78491 52.9697 5.93173 52.983 6.08166C53.0029 6.23159 53.0295 6.37529 53.0627 6.51273C53.1026 6.64392 53.1591 6.75637 53.2322 6.85008H51.6673C51.581 6.63767 51.5278 6.38465 51.5079 6.09103C51.488 5.79741 51.458 5.51628 51.4182 5.24765C51.365 4.89781 51.252 4.6417 51.0793 4.47927C50.9065 4.31684 50.6241 4.23562 50.2321 4.23562H48.6673V6.85008H47.1025V0.159288H50.9397ZM59.6177 1.39624H55.8602V2.82998H59.3087V3.97324H55.8602V5.61313H59.6974V6.85008H54.2954V0.159288H59.6177V1.39624ZM73.2547 4.64792H73.2747V0.159288H74.7398V6.85008H73.175L70.2148 2.37081H70.1949V6.85008H68.7298V0.159288H70.2846L73.2547 4.64792ZM82.3267 6.85008H80.7021L80.1639 5.36011H77.5027L76.9446 6.85008H75.3698L78.0609 0.159288H79.6655L82.3267 6.85008ZM84.9148 4.86344H84.9347L86.5394 0.159288H88.154L85.7919 6.85008H84.0277L81.7254 0.159288H83.3301L84.9148 4.86344ZM94.0831 1.39624H90.3256V2.82998H93.7742V3.97324H90.3256V5.61313H94.1629V6.85008H88.7608V0.159288H94.0831V1.39624ZM99.061 0.159288C99.3799 0.15929 99.6656 0.209257 99.9181 0.309211C100.177 0.402917 100.396 0.534116 100.576 0.702785C100.762 0.87146 100.901 1.06828 100.994 1.29318C101.094 1.51183 101.144 1.74923 101.144 2.00537C101.144 2.39893 101.054 2.7394 100.875 3.02676C100.702 3.31414 100.416 3.53279 100.018 3.68272V3.70149C100.21 3.75147 100.37 3.82954 100.496 3.93574C100.622 4.03569 100.725 4.15753 100.805 4.30121C100.885 4.43865 100.941 4.59171 100.975 4.76038C101.014 4.92906 101.041 5.09774 101.054 5.26642C101.061 5.37261 101.068 5.49755 101.074 5.64122C101.081 5.78491 101.091 5.93173 101.104 6.08166C101.124 6.23159 101.151 6.37529 101.184 6.51273C101.224 6.64392 101.28 6.75637 101.353 6.85008H99.7885C99.7021 6.63767 99.649 6.38465 99.6291 6.09103C99.6091 5.79741 99.5792 5.51628 99.5393 5.24765C99.4862 4.89782 99.3732 4.6417 99.2005 4.47927C99.0277 4.31684 98.7453 4.23562 98.3533 4.23562H96.7885V6.85008H95.2237V0.159288H99.061ZM103.892 6.85008H102.327V5.40697H103.892V6.85008ZM124.203 4.76038H124.223L125.797 0.159288H128V6.85008H126.535V2.10843H126.515L124.771 6.85008H123.565L121.821 2.15529H121.801V6.85008H120.335V0.159288H122.538L124.203 4.76038ZM9.84054 1.23695C9.48838 1.23695 9.18937 1.30255 8.94352 1.43374C8.69768 1.55868 8.49832 1.73049 8.3455 1.94914C8.19268 2.16154 8.07975 2.40518 8.00666 2.68005C7.94022 2.95493 7.90697 3.23918 7.90697 3.5328C7.90697 3.81392 7.94022 4.08881 8.00666 4.35744C8.07975 4.61982 8.19268 4.85723 8.3455 5.06963C8.49832 5.28204 8.69768 5.45384 8.94352 5.58503C9.18937 5.70997 9.48838 5.77241 9.84054 5.77241C10.1927 5.77241 10.4917 5.70997 10.7376 5.58503C10.9834 5.45384 11.1828 5.28203 11.3356 5.06963C11.4884 4.85723 11.598 4.61982 11.6645 4.35744C11.7376 4.08881 11.7741 3.81392 11.7741 3.5328C11.7741 3.23918 11.7376 2.95493 11.6645 2.68005C11.598 2.40518 11.4884 2.16154 11.3356 1.94914C11.1828 1.73048 10.9834 1.55868 10.7376 1.43374C10.4917 1.30255 10.1927 1.23695 9.84054 1.23695ZM42.5345 1.23695C42.1824 1.23695 41.8834 1.30255 41.6375 1.43374C41.3917 1.55868 41.1923 1.73049 41.0395 1.94914C40.8867 2.16154 40.7737 2.40518 40.7006 2.68005C40.6342 2.95493 40.6009 3.23918 40.6009 3.5328C40.6009 3.81392 40.6342 4.08881 40.7006 4.35744C40.7737 4.61982 40.8867 4.85723 41.0395 5.06963C41.1923 5.28203 41.3917 5.45384 41.6375 5.58503C41.8833 5.70997 42.1824 5.77241 42.5345 5.77241C42.8867 5.77241 43.1857 5.70997 43.4315 5.58503C43.6774 5.45384 43.8767 5.28203 44.0296 5.06963C44.1824 4.85723 44.292 4.61982 44.3584 4.35744C44.4315 4.08881 44.4681 3.81392 44.4681 3.5328C44.4681 3.23918 44.4315 2.95493 44.3584 2.68005C44.292 2.40518 44.1824 2.16154 44.0296 1.94914C43.8767 1.73049 43.6774 1.55868 43.4315 1.43374C43.1857 1.30255 42.8867 1.23695 42.5345 1.23695ZM115.767 1.23695C115.415 1.23695 115.116 1.30255 114.87 1.43374C114.625 1.55868 114.425 1.73049 114.272 1.94914C114.12 2.16154 114.007 2.40518 113.934 2.68005C113.867 2.95493 113.834 3.23918 113.834 3.5328C113.834 3.81392 113.867 4.08881 113.934 4.35744C114.007 4.61982 114.12 4.85723 114.272 5.06963C114.425 5.28203 114.625 5.45384 114.87 5.58503C115.116 5.70997 115.415 5.77241 115.767 5.77241C116.12 5.77241 116.419 5.70997 116.664 5.58503C116.91 5.45384 117.11 5.28204 117.263 5.06963C117.415 4.85723 117.525 4.61983 117.591 4.35744C117.665 4.08881 117.701 3.81392 117.701 3.5328C117.701 3.23918 117.665 2.95493 117.591 2.68005C117.525 2.40518 117.415 2.16154 117.263 1.94914C117.11 1.73049 116.91 1.55868 116.664 1.43374C116.419 1.30255 116.12 1.23695 115.767 1.23695ZM21.5213 5.70682H23.1957C23.3486 5.70682 23.4947 5.69434 23.6343 5.66936C23.7738 5.63812 23.8967 5.59127 24.003 5.5288C24.1093 5.46008 24.1924 5.36947 24.2522 5.25702C24.3187 5.14457 24.3519 5.00089 24.3519 4.82598C24.3519 4.48238 24.2489 4.23875 24.0429 4.09506C23.8369 3.94513 23.5645 3.87014 23.2256 3.87014H21.5213V5.70682ZM64.2068 2.48327C64.0274 2.48327 63.8613 2.527 63.7085 2.61446C63.5557 2.69567 63.4228 2.805 63.3098 2.94244C63.2035 3.07363 63.1204 3.22045 63.0606 3.38288C63.0008 3.5453 62.9709 3.7046 62.9709 3.86078C62.9709 4.11066 63.0407 4.31369 63.1802 4.46987C63.3264 4.6198 63.5158 4.69479 63.7483 4.69479C63.9277 4.69479 64.0905 4.65105 64.2367 4.5636C64.3895 4.47614 64.5191 4.36681 64.6254 4.23562C64.7384 4.09818 64.8248 3.94512 64.8846 3.77645C64.9444 3.60777 64.9743 3.44221 64.9743 3.27978C64.9743 3.04864 64.8979 2.85808 64.745 2.70815C64.5989 2.55822 64.4194 2.48327 64.2068 2.48327ZM77.9114 4.26372H79.7553L78.8582 1.80854H78.8383L77.9114 4.26372ZM48.6673 3.18609H50.3816C50.7404 3.18609 51.0095 3.1111 51.1889 2.96117C51.3683 2.81124 51.458 2.5676 51.458 2.23025C51.458 1.9054 51.3683 1.67112 51.1889 1.52743C51.0095 1.3775 50.7404 1.30255 50.3816 1.30255H48.6673V3.18609ZM96.7885 3.18609H98.5028C98.8616 3.18609 99.1307 3.1111 99.3101 2.96117C99.4895 2.81124 99.5792 2.5676 99.5792 2.23025C99.5792 1.9054 99.4895 1.67112 99.3101 1.52743C99.1307 1.3775 98.8616 1.30255 98.5028 1.30255H96.7885V3.18609ZM21.5213 2.86748H23.106C23.3851 2.86747 23.6143 2.80499 23.7937 2.68005C23.9731 2.55511 24.0628 2.35208 24.0628 2.07096C24.0628 1.91479 24.0329 1.78671 23.9731 1.68675C23.9133 1.5868 23.8336 1.50869 23.734 1.45247C23.6343 1.39625 23.518 1.35875 23.3851 1.34001C23.2589 1.31502 23.126 1.30255 22.9864 1.30255H21.5213V2.86748Z" fill="black"/>
</svg>
