<svg width="33" height="32" viewBox="0 0 33 32" fill="none" xmlns="http://www.w3.org/2000/svg">
<path d="M16 0C18.109 5.16341e-05 20.0442 0.757375 21.5566 2.01855C23.4773 3.62008 25.7339 5.10538 27.9404 6.28223C30.7339 7.77213 32.6395 10.7489 32.6396 14.1777C32.6396 16.0696 32.0587 17.824 31.0693 19.2666C30.3045 20.3819 29.8789 21.7375 29.8789 23.0898C29.8788 28.011 25.9541 32.0009 21.1123 32.001C20.8353 32.001 20.5614 31.9875 20.291 31.9619C17.7004 31.717 14.8621 31.7172 12.2715 31.9619C12.0014 31.9874 11.7278 32.001 11.4512 32.001C6.60926 32.0009 2.68375 28.0111 2.68359 23.0898C2.68356 22.0236 2.33673 20.968 1.70996 20.1055C0.635423 18.6266 0.000111438 16.7979 0 14.8184C0 11.6871 1.58906 8.93298 3.99219 7.34375C6.03765 5.9911 8.09345 4.33487 9.81836 2.5918C11.4035 0.989914 13.5881 0 16 0Z" fill="white"/>
</svg>
