<svg width="20" height="20" viewBox="0 0 20 20" fill="none" xmlns="http://www.w3.org/2000/svg">
<path d="M16.9771 2.07897C17.8691 2.97101 18.3674 4.1096 18.4736 5.28272C18.6086 6.77251 18.9346 8.35523 19.3701 9.78631C19.9215 11.598 19.4685 13.663 18.0181 15.1134C17.2179 15.9135 16.2306 16.41 15.202 16.6017C14.4067 16.7499 13.6535 17.1433 13.0814 17.7153C10.9999 19.7967 7.6526 19.8239 5.60467 17.7761C5.48749 17.6589 5.37711 17.5375 5.27352 17.4123C4.2814 16.213 3.08091 15.0127 1.88169 14.0205C1.75667 13.9171 1.63541 13.8069 1.5184 13.6899C-0.529518 11.6419 -0.502464 8.29435 1.57894 6.21282C2.02992 5.76183 2.32963 5.16885 2.42936 4.5389C2.60036 3.45877 3.10512 2.41649 3.94246 1.57909C5.26685 0.2547 7.10378 -0.238026 8.79239 0.106254C10.2296 0.399287 11.7996 0.568328 13.2664 0.560643C14.6144 0.55358 15.957 1.05884 16.9771 2.07897Z" fill="black"/>
</svg>
