<svg width="91" height="39" viewBox="0 0 91 39" fill="none" xmlns="http://www.w3.org/2000/svg">
<path d="M24.492 8.164V31.356H19.292V28.496C17.524 30.42 14.404 31.876 10.4 31.876C1.508 31.876 0 23.816 0 20.28V19.76C0 16.224 1.508 8.164 10.4 8.164C14.404 8.164 17.524 9.62 19.292 11.544V8.164H24.492ZM5.2 19.76C5.2 25.116 7.488 26.884 10.92 27.56C13.624 28.08 16.536 27.456 18.148 24.544C18.772 23.348 18.928 21.84 18.928 20.072V19.968C18.928 18.512 18.564 16.432 17.94 15.34C16.744 13.26 13.78 12.324 11.232 12.324C7.696 12.324 5.2 15.392 5.2 19.76Z" fill="black"/>
<path d="M29.5766 31.772C30.7726 32.916 33.9446 34.216 38.4686 34.216C45.5406 34.216 45.6966 30.68 45.5926 28.444V28.496C43.8246 30.42 41.2246 31.876 37.2206 31.876C28.3286 31.876 26.8206 23.816 26.8206 20.28V19.76C26.8206 16.224 28.3286 8.164 37.2206 8.164C41.2246 8.164 43.8246 9.62 45.5926 11.544V8.164H50.7926V27.664C50.7926 27.872 52.0406 38.896 38.4686 38.896C32.6966 38.896 28.7446 37.024 26.8206 35.672L29.5766 31.772ZM32.0206 20.28C32.0206 24.596 33.7886 26.468 37.2206 27.04C40.4446 27.56 43.3566 26.936 44.4486 24.544C45.0206 23.296 45.2286 21.84 45.2286 20.072C45.2286 18.512 44.7606 16.484 44.2406 15.34C43.2526 13.156 40.2886 12.48 37.2206 13C33.7366 13.572 32.0206 15.392 32.0206 19.76V20.28Z" fill="black"/>
<path d="M55.822 9.516H61.074V31.356H55.822V9.516ZM54.73 3.068C54.73 1.352 55.718 0 58.37 0C61.126 0 62.114 1.352 62.114 3.068C62.114 4.732 61.126 6.084 58.37 6.084C55.718 6.084 54.73 4.732 54.73 3.068Z" fill="black"/>
<path d="M65.4794 8.008H70.6274V0.311999H75.8794V8.008H80.7674V12.168H75.8794V31.356H70.6274V12.168H65.4794V8.008Z" fill="black"/>
<path d="M86.8782 32.396C84.1222 32.396 83.0822 30.992 83.0822 29.276C83.0822 27.508 84.1222 26.104 86.8782 26.104C89.7382 26.104 90.7782 27.508 90.7782 29.276C90.7782 30.992 89.7382 32.396 86.8782 32.396Z" fill="black"/>
</svg>
