<svg width="102" height="107" fill="none" xmlns="http://www.w3.org/2000/svg"><path d="M50.53.44c3.1 0 5.947 1.114 8.171 2.968 2.825 2.355 6.143 4.54 9.388 6.27 4.108 2.192 6.91 6.57 6.911 11.612 0 2.782-.854 5.362-2.309 7.483a10.038 10.038 0 0 0-1.75 5.624C70.94 41.633 65.167 47.5 58.047 47.5c-.407 0-.81-.019-1.208-.057-3.81-.36-7.984-.36-11.793 0-.397.038-.8.057-1.207.057-7.12 0-12.893-5.867-12.894-13.103a7.51 7.51 0 0 0-1.431-4.39A13.187 13.187 0 0 1 27 22.232c0-4.604 2.337-8.655 5.871-10.992 3.008-1.989 6.032-4.425 8.569-6.988C43.77 1.896 46.983.44 50.53.439zm-1.107 11.654a7.864 7.864 0 0 0-7.132 2.166 7.888 7.888 0 0 0-2.226 4.352 4.493 4.493 0 0 1-1.25 2.462c-3.06 3.061-3.1 7.984-.09 10.995.173.172.352.334.536.487a38.588 38.588 0 0 1 4.987 4.988c.152.184.315.363.487.535 3.012 3.011 7.934 2.971 10.995-.09a6.004 6.004 0 0 1 3.12-1.637 7.889 7.889 0 0 0 4.14-2.189 7.854 7.854 0 0 0 1.988-7.834c-.64-2.104-1.12-4.432-1.318-6.623a7.606 7.606 0 0 0-2.2-4.712 7.627 7.627 0 0 0-5.457-2.232c-2.157.011-4.467-.237-6.58-.668zM26.032 72.412v23.192h-5.2v-2.86c-1.768 1.924-4.888 3.38-8.892 3.38-8.892 0-10.4-8.06-10.4-11.596v-.52c0-3.536 1.508-11.596 10.4-11.596 4.004 0 7.124 1.456 8.892 3.38v-3.38h5.2zM6.74 84.008c0 5.356 2.288 7.124 5.72 7.8 2.704.52 5.616-.104 7.228-3.016.624-1.196.78-2.704.78-4.472v-.104c0-1.456-.364-3.536-.988-4.628-1.196-2.08-4.16-3.016-6.708-3.016-3.536 0-6.032 3.068-6.032 7.436zM31.117 96.02c1.196 1.144 4.368 2.444 8.892 2.444 7.072 0 7.228-3.536 7.124-5.772v.052c-1.768 1.924-4.368 3.38-8.372 3.38-8.892 0-10.4-8.06-10.4-11.596v-.52c0-3.536 1.508-11.596 10.4-11.596 4.004 0 6.604 1.456 8.372 3.38v-3.38h5.2v19.5c0 .208 1.248 11.232-12.324 11.232-5.772 0-9.724-1.872-11.648-3.224l2.756-3.9zm2.444-11.492c0 4.316 1.768 6.188 5.2 6.76 3.224.52 6.136-.104 7.228-2.496.572-1.248.78-2.704.78-4.472 0-1.56-.468-3.588-.988-4.732-.988-2.184-3.952-2.86-7.02-2.34-3.484.572-5.2 2.392-5.2 6.76v.52zm23.801-10.764h5.252v21.84h-5.252v-21.84zm-1.092-6.448c0-1.716.988-3.068 3.64-3.068 2.756 0 3.744 1.352 3.744 3.068 0 1.664-.988 3.016-3.744 3.016-2.652 0-3.64-1.352-3.64-3.016zm10.75 4.94h5.147V64.56h5.252v7.696h4.888v4.16H77.42v19.188h-5.252V76.416H67.02v-4.16zm21.398 24.388c-2.756 0-3.796-1.404-3.796-3.12 0-1.768 1.04-3.172 3.796-3.172 2.86 0 3.9 1.404 3.9 3.172 0 1.716-1.04 3.12-3.9 3.12z" fill="#000"/></svg>