<svg width="139" height="42" fill="none" xmlns="http://www.w3.org/2000/svg"><path d="M16 5c2.109 0 4.044.757 5.557 2.019 1.92 1.601 4.177 3.086 6.383 4.263a8.93 8.93 0 0 1 4.7 7.896 8.97 8.97 0 0 1-1.57 5.089 6.825 6.825 0 0 0-1.191 3.823c0 4.921-3.925 8.91-8.767 8.911a8.71 8.71 0 0 1-.821-.04 43.877 43.877 0 0 0-8.02 0c-.27.026-.543.04-.82.04-4.842 0-8.767-3.99-8.767-8.911a5.108 5.108 0 0 0-.974-2.985A8.967 8.967 0 0 1 0 19.819a8.94 8.94 0 0 1 3.992-7.474c2.046-1.353 4.101-3.01 5.826-4.752A8.67 8.67 0 0 1 16 5zm-.753 7.925a5.347 5.347 0 0 0-4.85 1.473 5.364 5.364 0 0 0-1.512 2.96c-.1.63-.4 1.222-.85 1.673-2.082 2.082-2.11 5.429-.061 7.477.117.117.238.227.363.33 1.2.993 2.4 2.193 3.392 3.392.103.126.213.247.33.365 2.049 2.047 5.396 2.02 7.477-.062a4.084 4.084 0 0 1 2.121-1.113 5.365 5.365 0 0 0 2.817-1.488 5.34 5.34 0 0 0 1.351-5.327 23.017 23.017 0 0 1-.896-4.504 5.17 5.17 0 0 0-1.496-3.203 5.187 5.187 0 0 0-3.711-1.52 22.372 22.372 0 0 1-4.475-.453zM69.132 11.644v23.192h-5.2v-2.86c-1.768 1.924-4.888 3.38-8.892 3.38-8.892 0-10.4-8.06-10.4-11.596v-.52c0-3.536 1.508-11.596 10.4-11.596 4.004 0 7.124 1.456 8.892 3.38v-3.38h5.2zM49.84 23.24c0 5.356 2.288 7.124 5.72 7.8 2.704.52 5.616-.104 7.228-3.016.624-1.196.78-2.704.78-4.472v-.104c0-1.456-.364-3.536-.988-4.628-1.196-2.08-4.16-3.016-6.708-3.016-3.536 0-6.032 3.068-6.032 7.436zM73.888 34.742c1.196 1.144 4.368 2.444 8.892 2.444 7.072 0 7.228-3.536 7.124-5.772v.052c-1.768 1.924-4.368 3.38-8.372 3.38-8.892 0-10.4-8.06-10.4-11.596v-.52c0-3.536 1.508-11.596 10.4-11.596 4.004 0 6.604 1.456 8.372 3.38v-3.38h5.2v19.5c0 .208 1.248 11.232-12.324 11.232-5.772 0-9.724-1.872-11.648-3.224l2.756-3.9zm2.444-11.492c0 4.316 1.768 6.188 5.2 6.76 3.224.52 6.136-.104 7.228-2.496.572-1.248.78-2.704.78-4.472 0-1.56-.468-3.588-.988-4.732-.988-2.184-3.952-2.86-7.02-2.34-3.484.572-5.2 2.392-5.2 6.76v.52zM100.226 11.338h5.252v21.84h-5.252v-21.84zM99.134 4.89c0-1.716.988-3.068 3.64-3.068 2.756 0 3.744 1.352 3.744 3.068 0 1.664-.988 3.016-3.744 3.016-2.652 0-3.64-1.352-3.64-3.016zM109.518 9.674h5.148V1.978h5.252v7.696h4.888v4.16h-4.888v19.188h-5.252V13.834h-5.148v-4.16zM132.602 32.645c-2.756 0-3.796-1.404-3.796-3.12 0-1.767 1.04-3.171 3.796-3.171 2.86 0 3.9 1.404 3.9 3.172 0 1.715-1.04 3.12-3.9 3.12z" fill="#000"/></svg>