<svg width="27" height="24" fill="none" xmlns="http://www.w3.org/2000/svg"><path d="M6.032 14.776h9.792a4.266 4.266 0 0 1 4.272 4.272 4.266 4.266 0 0 1-4.272 4.272H6.032a4.281 4.281 0 0 1-4.272-4.272 4.281 4.281 0 0 1 4.272-4.272zM.68 13.072V.736h10.632v3.096h-6.72v1.704h6.312v2.88H4.592V10h7.128v3.072H.68zm11.904-7.56h4.08V.616H20v12.672h-3.336V8.464h-4.08V5.512zm3.24 12.504H6.032c-.576 0-1.032.456-1.032 1.032 0 .576.456 1.032 1.032 1.032h9.792c.576 0 1.032-.456 1.032-1.032 0-.576-.456-1.032-1.032-1.032zm10.583 5.304h-3.552v-3.456h3.552v3.456z" fill="#000"/></svg>