<svg width="24" height="24" fill="none" xmlns="http://www.w3.org/2000/svg"><path d="M19.5 4.02h-15a2 2 0 0 0-2 2v13a2 2 0 0 0 2 2h15a2 2 0 0 0 2-2v-13a2 2 0 0 0-2-2z" fill="#C6CCD5"/><path d="M8.48 3.02H7.5a.5.5 0 0 0-.5.5v2a.5.5 0 0 0 .5.5h.98a.5.5 0 0 0 .5-.5v-2a.5.5 0 0 0-.5-.5z" fill="#B6BBC3"/><path d="M8.74 9.5h-1.5a.5.5 0 0 0-.5.5v1.5a.5.5 0 0 0 .5.5h1.5a.5.5 0 0 0 .5-.5V10a.5.5 0 0 0-.5-.5zM12.75 9.5h-1.5a.5.5 0 0 0-.5.5v1.5a.5.5 0 0 0 .5.5h1.5a.5.5 0 0 0 .5-.5V10a.5.5 0 0 0-.5-.5zM16.76 9.5h-1.5a.5.5 0 0 0-.5.5v1.5a.5.5 0 0 0 .5.5h1.5a.5.5 0 0 0 .5-.5V10a.5.5 0 0 0-.5-.5z" fill="#fff"/><path d="M16.5 3.02h-1a.5.5 0 0 0-.5.5v2a.5.5 0 0 0 .5.5h1a.5.5 0 0 0 .5-.5v-2a.5.5 0 0 0-.5-.5z" fill="#B6BBC3"/><path d="M8.74 14h-1.5a.5.5 0 0 0-.5.5V16a.5.5 0 0 0 .5.5h1.5a.5.5 0 0 0 .5-.5v-1.5a.5.5 0 0 0-.5-.5zM12.75 14h-1.5a.5.5 0 0 0-.5.5V16a.5.5 0 0 0 .5.5h1.5a.5.5 0 0 0 .5-.5v-1.5a.5.5 0 0 0-.5-.5zM16.76 14h-1.5a.5.5 0 0 0-.5.5V16a.5.5 0 0 0 .5.5h1.5a.5.5 0 0 0 .5-.5v-1.5a.5.5 0 0 0-.5-.5z" fill="#fff"/></svg>