<svg width="24" height="24" fill="none" xmlns="http://www.w3.org/2000/svg"><path d="M12.12 19.049h.001m-.26-.128a21.973 21.973 0 0 1-3.803-2.455C5.95 14.76 4 12.421 4 9.67c0-1.223.432-2.399 1.152-3.264C5.87 5.545 6.863 5 8.003 5c.953 0 2.048.248 2.961.92.575.422 1.485.422 2.06 0 .918-.672 2.02-.92 2.973-.92 1.14 0 2.133.545 2.85 1.407C19.569 7.272 20 8.449 20 9.67c0 2.624-1.945 4.96-4.06 6.704a23.583 23.583 0 0 1-3.81 2.54l-.005.003a.287.287 0 0 1-.264.003z" stroke="#000" stroke-width="1.5"/></svg>