<svg width="24" height="24" fill="none" xmlns="http://www.w3.org/2000/svg"><path d="M8 4v2m0 0H7C5 6 4 7 4 9v8c0 2 1 3 3 3h10c2 0 3-1 3-3V9c0-2-1-3-3-3h-1M8 6h8m0-2v2" stroke="#000" stroke-width="1.5" stroke-linecap="round" stroke-linejoin="round"/><circle cx="8" cy="15" r="1" fill="#000"/><circle cx="8" cy="11" r="1" fill="#000"/><circle cx="12" cy="15" r="1" fill="#000"/><circle cx="12" cy="11" r="1" fill="#000"/><circle cx="16" cy="15" r="1" fill="#000" fill-opacity=".01"/><circle cx="16" cy="11" r="1" fill="#000"/></svg>