<svg width="24" height="24" fill="none" xmlns="http://www.w3.org/2000/svg"><path d="m16.647 5-5.703 5.703a1.664 1.664 0 0 0 2.353 2.353l3.762-3.762L19 7.353M16.647 5l.895-.894c.07-.07.145-.136.23-.187.356-.217 1.41-.737 2.228.081.818.818.298 1.872.081 2.229-.051.085-.116.16-.186.23L19 7.353M16.647 5 19 7.353" stroke="#000" stroke-width="1.5" stroke-linecap="round" stroke-linejoin="round"/><path d="M12 6H6a2 2 0 0 0-2 2v10a2 2 0 0 0 2 2h9a2 2 0 0 0 2-2v-5" stroke="#000" stroke-width="1.5" stroke-linecap="round" stroke-linejoin="round"/></svg>